<svg xmlns="http://www.w3.org/2000/svg" viewBox="0 0 182.24 52.19"><defs><style>.cls-1{fill:#fff;}.cls-2{fill:#221714;}.cls-3{fill:#f2eb1d;}</style></defs><g id="レイヤー_2" data-name="レイヤー 2"><g id="レイヤー_1-2" data-name="レイヤー 1"><path class="cls-1" d="M44.52,41.34a115.35,115.35,0,0,0-15-1.17h-.89l-.3,1-.29,1h1.17c11.6.24,18.42,1.54,20,2.47-1.81,1.09-10.49,2.5-23.5,2.5S4.12,45.74,2.26,44.65c.6-.33,2.31-1,6.84-1.59a133.29,133.29,0,0,1,16-.92h1l-.17-1-.17-1h-.88a128.93,128.93,0,0,0-17,1.07C3.79,41.79,0,42.62,0,44.64a2,2,0,0,0,.06.48h0l1.05,6.23a1,1,0,0,0,1,.84l.16,0A1,1,0,0,0,3.09,51L2.4,46.88a30.54,30.54,0,0,0,5.71,1.23,131.89,131.89,0,0,0,17.62,1,132.16,132.16,0,0,0,17.63-1A30.61,30.61,0,0,0,49,46.92l-.85,4a1,1,0,0,0,.77,1.2l.21,0a1,1,0,0,0,1-.8l1.36-6.39a1,1,0,0,0,0-.3h0C51.47,42.73,48.13,41.93,44.52,41.34Z"/><path class="cls-2" d="M35.08,21.47l-5.52,18.7-.29,1h-.9l.3-1L34,22l-6.09-1.86L31.66,4.84,17.2,1.14l1.89,20.12L23,23.36,25.8,40.13l.17,1h-.88l-.17-1L22.17,23.92,18.28,21.8,16.23,0,32.7,4.21,29,19.6Z"/><path class="cls-2" d="M29.27,41.17l-.3,1-1.3,4.4L26,46.47l-.74-4.33-.17-1H26l.17,1,.71,4.18,1.23-4.16.29-1Z"/><polygon class="cls-1" points="34.01 22.04 28.67 40.16 28.37 41.16 28.08 42.16 26.85 46.32 26.14 42.14 25.97 41.13 25.8 40.13 22.95 23.36 19.09 21.26 17.2 1.14 31.66 4.84 27.92 20.18 34.01 22.04"/><path class="cls-1" d="M82.44,47H79.68v3.15H78.62V42.92h1.06V46h2.76V42.92h1v7.19h-1Z"/><path class="cls-1" d="M93.28,48.5H90.64l-.54,1.61H89l2.53-7.19h.88l2.53,7.19H93.82Zm-.3-1-1-3.14h0l-1,3.14Z"/><path class="cls-1" d="M103.34,42.92h2.72a2.06,2.06,0,0,1,1.42.47,2,2,0,0,1,.69,1.53,2,2,0,0,1-1.34,2l1.61,3.19h-1.25L105.75,47H104.4v3.08h-1.06Zm1.06,3.15H106a1.16,1.16,0,0,0,.89-.36,1.15,1.15,0,0,0,.29-.79,1,1,0,0,0-.35-.81,1.19,1.19,0,0,0-.78-.23H104.4Z"/><path class="cls-1" d="M120.54,48.5H117.9l-.53,1.61h-1.12l2.53-7.19h.88l2.53,7.19h-1.11Zm-.3-1-1-3.14h0l-1,3.14Z"/><path class="cls-1" d="M130.73,48.57a1.35,1.35,0,0,0,.38.33,1,1,0,0,0,.55.15,1.16,1.16,0,0,0,.8-.3,1,1,0,0,0,.29-.4,1.42,1.42,0,0,0,.11-.61V42.89h1.06v5a2.19,2.19,0,0,1-.69,1.68,2.28,2.28,0,0,1-1.54.62,2.14,2.14,0,0,1-1.84-.94Z"/><path class="cls-1" d="M142.81,42.89h1.05v4.64a1.52,1.52,0,0,0,.41,1.12,1.34,1.34,0,0,0,1,.4,1.38,1.38,0,0,0,1-.4,1.56,1.56,0,0,0,.4-1.12V42.89h1.06v4.75a2.5,2.5,0,0,1-4.23,1.8,2.32,2.32,0,0,1-.72-1.8Z"/><path class="cls-1" d="M156.77,42.92h1v3.7h0l2.87-3.7H162l-2.23,2.83,2.47,4.36h-1.26l-1.89-3.52-1.23,1.33v2.19h-1Z"/><path class="cls-1" d="M167.46,42.89h1.06v4.64a1.52,1.52,0,0,0,.41,1.12,1.34,1.34,0,0,0,1,.4,1.38,1.38,0,0,0,1-.4,1.56,1.56,0,0,0,.4-1.12V42.89h1v4.75a2.49,2.49,0,0,1-4.22,1.8,2.36,2.36,0,0,1-.73-1.8Z"/><path class="cls-3" d="M72.82,41.32a19.39,19.39,0,0,1-3.94-12.21A19.52,19.52,0,0,1,72.82,16.8h1.81a19.8,19.8,0,0,0-3.81,12.34,20,20,0,0,0,3.81,12.18Z"/><path class="cls-3" d="M79.43,35.92l-.81-.82V28.62l.81-.82.83.82V35.1Zm8.26-8.24-.82.81H80.4l-.82-.81.82-.82h6.47Zm0,8.36-.82.83H80.4L79.58,36l.82-.81h6.47Zm0-4-.82-.82H81.25l-.81.82.81.82h5.62Zm1-3.38-.83-.82-.81.82v2.43l.81.8.83-.8Z"/><path class="cls-3" d="M93.8,35l1-.48.49,1-.94,2.92-1,.5-.49-1Zm.66-10.53-.77.77V26l.77.77.77-.77v-.76Z"/><path class="cls-3" d="M100.29,19.22l.82.82v6.57l-.82.82-.82-.82V20Zm7.52.68h-6.56l-.82-.83.82-.81h6.56l.83.81Zm0,6.85.83.83-.83.81h-6.56l-.82-.81.82-.83Zm.83,9.3-.83.82h-6.56l-.82-.82.82-.82h6.56ZM108,28.52l.81-.82.83.82v6.57l-.83.82-.81-.82Z"/><path class="cls-3" d="M114.63,18.27h3.15l.81.82-.81.82h-3.15l-.81-.82Zm4.09,9.14-.81-.81V20.05l.81-.82.82.82V26.6Zm0,.28.82.83V36l-.82.82-.81-.82v-7.5Zm1-7.78-.82-.82.82-.82h3.14l.82.82-.82.82Z"/><path class="cls-3" d="M127.86,19.12l.82-.82.82.82v7.5l-.82.83-.82-.83Zm0,16V28.54l.82-.81.82.81v6.55l-.82.82Zm1,1,.82-.82h6.55l.81.82-.81.82h-6.55Zm8.33-8.6-.82-.83v-7.5l.82-.82.81.82v7.5Zm.81,7.64-.81.82-.82-.82V28.54l.82-.81.81.81Z"/><path class="cls-3" d="M142.18,20l.85-.82.81.82V35.09l-.81.82-.85-.82Zm5.25-1.78.83.82-.83.82H144l-.83-.82.83-.82h3.44Zm0,18.59.83-.81-.83-.82H144l-.83.82.83.81h3.44Zm1-1,.9-.82,3.37-7.37-1.61,0-3.48,7.4Zm0-16.67.89.82,3.42,7.39h-1.64L147.64,20Z"/><path class="cls-3" d="M158.18,26.6l-.83.81-.81-.81V19.06l.81-.81.83.81Zm0,1.92v7.53l-.83.82-.81-.82V28.52l.81-.82Z"/><path class="cls-3" d="M162.41,35.09v-15l.82-.82.81.82v15l-.81.82Zm9.15-16-.82.82h-6.55l-.82-.82.82-.82h6.55Zm-7.37,17.78h6.55l.82-.82-.82-.82h-6.55l-.82.82Zm8.33-1.78v-15l-.82-.82-.81.82v15l.81.82Z"/><path class="cls-3" d="M178.33,16.8a19.43,19.43,0,0,1,3.91,12.26,19.58,19.58,0,0,1-3.91,12.26h-1.81A20.13,20.13,0,0,0,180.32,29a19.92,19.92,0,0,0-3.8-12.23Z"/></g></g></svg>